<svg width="24" height="24" viewBox="0 0 24 24" fill="none" xmlns="http://www.w3.org/2000/svg">
<path d="M17.25 9.75001L19.5 12M19.5 12L21.75 14.25M19.5 12L21.75 9.75001M19.5 12L17.25 14.25M6.75 8.25001L11.47 3.53001C11.575 3.42519 11.7086 3.35385 11.8541 3.325C11.9996 3.29614 12.1504 3.31108 12.2874 3.36791C12.4244 3.42475 12.5415 3.52093 12.6238 3.6443C12.7062 3.76767 12.7501 3.91268 12.75 4.06101V19.94C12.7499 20.0883 12.7058 20.2331 12.6234 20.3563C12.541 20.4796 12.4239 20.5756 12.2869 20.6323C12.15 20.689 11.9993 20.7039 11.8539 20.675C11.7085 20.6461 11.5749 20.5748 11.47 20.47L6.75 15.75H4.51C3.63 15.75 2.806 15.244 2.572 14.396C2.35752 13.6154 2.24922 12.8095 2.25 12C2.25 11.17 2.362 10.367 2.572 9.60501C2.806 8.75701 3.63 8.25001 4.51 8.25001H6.75Z" stroke="black" stroke-width="1.5" stroke-linecap="round" stroke-linejoin="round"/>
</svg>
